HIERARCHY
ROOT Hips
{
    OFFSET 0.000000 0.000000 0.000000
    CHANNELS 6 Xposition Yposition Zposition Zrotation Xrotation Yrotation
    JOINT Spine
    {
        OFFSET -0.000000 7.246840 0.000000
        CHANNELS 3 Zrotation Xrotation Yrotation
        JOINT Spine1
        {
            OFFSET -0.000000 20.289354 0.000000
            CHANNELS 3 Zrotation Xrotation Yrotation
            JOINT Neck
            {
                OFFSET -0.000000 20.206032 1.836912
                CHANNELS 3 Zrotation Xrotation Yrotation
                JOINT Head
                {
                    OFFSET -0.000000 12.372654 -1.767522
                    CHANNELS 3 Zrotation Xrotation Yrotation
                    End Site
                    {
                        OFFSET -0.000000 22.094025 0.000000
                    }
                }
            }
            JOINT LeftShoulder
            {
                OFFSET 3.465871 17.201674 -0.568930
                CHANNELS 3 Zrotation Xrotation Yrotation
                JOINT LeftArm
                {
                    OFFSET 14.070313 0.000000 0.000000
                    CHANNELS 3 Zrotation Xrotation Yrotation
                    JOINT LeftForeArm
                    {
                        OFFSET 26.549477 0.000000 0.000000
                        CHANNELS 3 Zrotation Xrotation Yrotation
                        JOINT LeftHand
                        {
                            OFFSET 18.880413 0.000000 0.000000
                            CHANNELS 3 Zrotation Xrotation Yrotation
                            End Site
                            {
                                OFFSET 13.256415 0.000000 0.000000
                            }
                        }
                    }
                }
            }
            JOINT RightShoulder
            {
                OFFSET -3.526370 17.201674 -0.568930
                CHANNELS 3 Zrotation Xrotation Yrotation
                JOINT RightArm
                {
                    OFFSET -14.070313 0.000000 0.000000
                    CHANNELS 3 Zrotation Xrotation Yrotation
                    JOINT RightForeArm
                    {
                        OFFSET -26.549477 0.000000 0.000000
                        CHANNELS 3 Zrotation Xrotation Yrotation
                        JOINT RightHand
                        {
                            OFFSET -18.880413 0.000000 0.000000
                            CHANNELS 3 Zrotation Xrotation Yrotation
                            End Site
                            {
                                OFFSET -13.256415 0.000000 0.000000
                            }
                        }
                    }
                }
            }
        }
    }
    JOINT LeftUpLeg
    {
        OFFSET 8.837609 0.000000 0.000000
        CHANNELS 3 Zrotation Xrotation Yrotation
        JOINT LeftLeg
        {
            OFFSET -0.000000 -41.345005 0.000000
            CHANNELS 3 Zrotation Xrotation Yrotation
            JOINT LeftFoot
            {
                OFFSET -0.000000 -35.500874 0.000000
                CHANNELS 3 Zrotation Xrotation Yrotation
                JOINT LeftToeBase
                {
                    OFFSET -0.000000 -5.744446 13.256415
                    CHANNELS 3 Zrotation Xrotation Yrotation
                    End Site
                    {
                        OFFSET -0.000000 0.000000 3.535044
                    }
                }
            }
        }
    }
    JOINT RightUpLeg
    {
        OFFSET -8.837609 0.000000 0.000000
        CHANNELS 3 Zrotation Xrotation Yrotation
        JOINT RightLeg
        {
            OFFSET -0.000000 -41.345005 0.000000
            CHANNELS 3 Zrotation Xrotation Yrotation
            JOINT RightFoot
            {
                OFFSET -0.000000 -35.500874 0.000000
                CHANNELS 3 Zrotation Xrotation Yrotation
                JOINT RightToeBase
                {
                    OFFSET -0.000000 -5.744446 13.256415
                    CHANNELS 3 Zrotation Xrotation Yrotation
                    End Site
                    {
                        OFFSET -0.000000 0.000000 3.535044
                    }
                }
            }
        }
    }
}
MOTION
Frames:    12
Frame Time:    0.010000
21.825808    82.775566    128.717712    2.349211    -4.012061    -5.623219    -8.475147    -7.883171    -1.795830    6.400028    7.378493    -1.623926    0.920954    28.684088    2.204885    1.160901    -13.393515    2.702826    3.422620    11.266171    18.182673    -80.816422    2.983379    0.045456    7.599086    -33.151985    -70.492790    -19.137518    -23.333721    -33.311058    -6.764496    3.908110    6.080456    60.653564    15.210014    0.327104    1.207638    -36.460758    52.093937    7.167194    -35.439419    28.917540    -3.910923    -1.018375    2.638176    -0.147250    15.154825    -19.926931    6.120295    -5.322862    13.315823    0.217141    -1.307713    -0.306400    -5.258547    -15.035965    -2.591082    -3.903177    25.372250    6.769104    24.253891    -13.692569    -9.622863    -5.066352    -0.645147    9.136017    
21.815536    82.981583    129.028625    2.181137    -3.580703    -5.059852    -8.263738    -8.262630    -1.836187    6.347496    7.151883    -1.635377    0.859481    28.727968    1.914374    1.349097    -13.064209    2.438077    3.490570    11.226469    18.224812    -80.089348    2.670587    0.040352    6.802369    -32.986355    -71.145630    -18.940922    -23.492811    -34.390942    -6.950401    3.955283    6.107930    59.911236    15.925887    0.374220    0.764006    -37.058258    52.343552    7.851722    -35.723133    28.984211    -3.887751    -0.371258    1.778880    -0.033843    13.191308    -18.186630    5.770587    -4.715089    11.792394    0.168102    -1.141691    -0.236961    -5.078973    -14.668837    -2.208812    -3.505102    22.572634    5.925804    26.778622    -12.883083    -8.452519    -5.123604    -1.388616    9.314578    
21.809059    83.160683    129.329712    1.976686    -3.167303    -4.556070    -7.946177    -8.632799    -1.851025    6.176066    6.917832    -1.624008    0.950218    28.866249    1.609787    1.350903    -12.834293    2.131594    3.506570    11.487699    18.105040    -79.438644    2.123877    -0.103012    6.859447    -32.881252    -71.501495    -18.669998    -23.414984    -34.239502    -7.087634    3.861693    6.330048    59.389385    15.870675    0.245350    0.084312    -36.902431    52.499966    7.805831    -35.325432    28.593660    -3.788354    0.358716    0.949827    0.043250    11.094961    -16.377600    5.397963    -4.084084    10.239112    0.197501    -0.943870    -0.278066    -5.075401    -14.285439    -1.127154    -2.629228    20.340872    5.880157    31.217075    -13.639925    -7.602182    -4.726027    2.966586    8.206737    
21.800026    83.327271    129.657761    1.778329    -2.835074    -4.110825    -7.667470    -9.069089    -1.881902    6.060670    6.975348    -1.642698    1.219207    28.390789    1.185691    0.986950    -11.943920    1.619068    3.660025    11.215549    18.265818    -78.795837    1.901350    0.058870    6.616609    -32.826073    -72.093002    -18.587347    -23.499828    -34.192314    -7.398612    3.516060    6.549611    59.039223    15.935391    0.104506    -0.798766    -36.594036    52.517647    6.489576    -34.984386    27.488764    -3.652364    1.253803    0.236434    0.105058    8.872590    -14.621389    5.060856    -3.409077    8.659993    0.181686    -0.761997    -0.255518    -5.080702    -13.776644    0.164064    -1.526344    17.761921    5.267710    33.037476    -13.299882    -8.087565    -5.319076    3.675211    9.168207    
21.834187    83.472321    130.008514    1.632947    -2.550689    -3.669204    -7.196778    -9.616402    -1.903174    5.650756    7.020486    -1.643909    1.102438    28.785736    1.022155    1.094269    -11.971404    1.465960    3.701680    11.323556    18.194633    -78.139816    1.452259    -0.037554    6.515042    -32.845909    -72.599510    -18.299946    -23.588064    -34.465256    -7.457058    3.585668    6.949667    58.404816    15.894458    0.141961    -2.888298    -36.210781    51.235313    8.655590    -33.266945    28.424009    -3.569347    2.270421    -0.490479    0.143828    6.505735    -12.876492    4.733717    -2.670751    7.119852    0.203774    -0.567840    -0.286246    -5.462037    -12.950549    1.315800    -0.099470    14.892558    5.420153    34.808903    -13.755834    -8.599653    -5.130323    6.372005    8.614427    
21.822006    83.595276    130.351929    1.484373    -2.267708    -3.318244    -6.945602    -10.086667    -1.858434    5.560816    6.961545    -1.583242    1.042204    29.012442    0.720611    1.073831    -11.731686    1.140156    3.819702    11.195501    18.212259    -77.623024    1.264037    0.040179    6.295766    -32.941299    -73.005676    -18.164709    -23.672115    -35.556454    -7.666594    3.545241    7.314682    57.981163    15.949847    -0.058076    -3.323393    -36.320137    51.728245    7.773661    -33.427654    27.611347    -3.399658    3.278275    -0.728296    0.161561    4.168275    -11.619297    4.382549    -1.948422    5.655990    0.233354    -0.365094    -0.327396    -5.463068    -12.378192    2.515285    0.626245    12.421615    4.966630    35.813911    -13.651555    -9.381962    -6.134614    8.607002    10.083525    
21.802496    83.677994    130.680008    1.374216    -1.939525    -2.974409    -6.811893    -10.601169    -1.791073    5.593300    6.951140    -1.498357    0.963852    29.035254    0.449220    1.059969    -11.292955    0.841004    3.909204    11.028655    18.137688    -77.055122    1.127132    0.069862    6.300458    -33.120129    -73.648376    -17.789051    -23.992134    -35.143101    -8.056623    2.663485    7.532658    58.123905    15.887659    -0.837705    -3.954100    -35.971355    51.608013    7.797513    -32.806835    27.645935    -3.204598    4.185816    -0.654728    0.112233    1.948963    -10.831936    4.045975    -1.309923    4.367708    0.270528    -0.152482    -0.379066    -5.510413    -11.863184    3.499014    1.152347    10.200007    4.739477    37.657459    -13.926254    -9.674162    -5.477518    9.540442    8.930567    
21.769814    83.707878    131.020172    1.358108    -1.714837    -2.546189    -6.922877    -10.904716    -1.709195    5.741783    6.707436    -1.384395    1.187941    29.223467    0.010141    0.848039    -10.864337    0.361582    4.122663    10.767431    17.766479    -76.641029    0.891084    0.413119    6.148937    -33.330002    -74.627480    -17.083784    -24.577398    -34.351597    -8.089675    2.954901    7.508652    57.406479    15.166666    -0.559384    -4.511103    -35.379955    51.384441    7.651443    -32.002960    27.663904    -3.060169    5.323878    -1.462844    0.004550    -0.551334    -9.104100    3.694267    -0.511546    2.911177    0.156977    0.212143    -0.219479    -5.742625    -11.158232    4.060627    1.797184    7.861022    4.283997    38.521042    -13.753480    -10.181618    -5.264992    12.197739    8.386545    
21.761784    83.709366    131.362228    1.293071    -1.319650    -2.198611    -6.826314    -11.522265    -1.608627    5.785774    6.628036    -1.254460    1.106331    29.422537    -0.308831    0.890178    -10.503866    0.028430    4.130473    10.966328    17.747595    -76.189964    0.752679    -0.047682    6.180386    -33.509399    -75.175789    -16.836376    -24.806957    -34.164127    -8.022123    3.913611    7.504892    56.239361    15.008631    0.149481    -5.142082    -35.354782    51.142303    8.247606    -31.505217    29.177729    -2.859157    6.208754    -1.444297    -0.107222    -2.821078    -8.369658    3.336534    0.173815    1.728049    0.195530    0.379858    -0.273110    -5.945484    -10.664021    4.443963    2.537636    5.560365    3.387945    39.161308    -13.041286    -11.069958    -5.281916    13.943865    8.289649    
21.748594    83.679131    131.670883    1.384260    -0.834121    -1.762934    -6.791577    -12.269213    -1.651347    5.568847    6.837564    -1.253584    0.942423    28.992186    -0.537611    1.077380    -9.745703    -0.198496    4.462144    10.258407    17.736965    -75.572891    0.694110    0.461245    6.501014    -33.512424    -75.659119    -16.848511    -24.559223    -34.044956    -8.197670    3.678366    7.642692    56.040070    14.926887    0.073860    -5.665574    -35.235275    51.098930    8.007949    -31.217564    29.239843    -2.786364    6.932223    -1.459948    -0.274350    -5.007096    -7.778615    3.019887    0.838272    0.614849    0.227303    0.610529    -0.317055    -6.341022    -10.291212    4.440641    3.231735    3.576288    2.743283    40.216499    -12.607942    -12.017154    -4.640618    16.055573    7.159118    
21.730745    83.578285    131.965881    1.334285    -0.537725    -1.247074    -6.565480    -12.660221    -1.669317    5.322094    6.753863    -1.254545    0.599439    28.902508    -0.739147    1.461128    -9.236898    -0.371449    4.496774    10.391003    17.862968    -74.870949    -0.386981    0.026798    6.391630    -32.748291    -76.382790    -16.613400    -23.951214    -33.093807    -8.284544    3.732315    7.742885    55.695530    14.499574    0.251251    -5.818709    -35.303448    51.248280    8.345405    -31.106216    29.782583    -2.533156    7.829372    -1.580213    -0.002536    -10.161015    23.976650    3.647403    2.844400    -31.570423    0.482764    1.023979    -0.671743    -6.588913    -9.773706    4.243507    3.886053    1.831251    1.983748    41.567799    -11.645172    -13.018905    -4.640618    16.055573    7.159118    
21.713303    83.435997    132.259399    1.413602    -0.158337    -0.756019    -6.516162    -13.133944    -1.611940    5.092698    6.635275    -1.156478    0.426537    28.901897    -1.016697    1.788828    -8.902903    -0.614179    4.735314    10.215913    17.691233    -74.163811    -0.800366    -0.079847    6.645349    -32.419033    -76.857491    -16.340986    -23.506598    -32.659584    -8.334688    3.725621    7.786084    55.514824    14.059450    0.070710    -5.846708    -35.527515    51.731079    8.641114    -31.208975    30.176012    -2.369437    8.595570    -1.820967    -0.307752    -12.120469    23.449137    4.079221    3.569862    -31.417107    0.950040    0.380425    -1.326948    -7.052417    -9.299901    3.776665    4.724514    0.081219    1.756584    42.354130    -10.155346    -14.818530    -4.640618    16.055573    7.159118    
